<mxfile host="65bd71144e">
    <diagram id="06Bzt5o1KK_x6JrnfmLR" name="Page-1">
        <mxGraphModel dx="1712" dy="1667" grid="0" gridSize="10" guides="1" tooltips="1" connect="1" arrows="1" fold="1" page="1" pageScale="1" pageWidth="850" pageHeight="1100" background="#FFFFFF" math="0" shadow="0">
            <root>
                <mxCell id="0"/>
                <mxCell id="1" parent="0"/>
                <mxCell id="26" value="User" style="shape=table;startSize=30;container=1;collapsible=0;childLayout=tableLayout;strokeWidth=1;strokeColor=#000000;fillColor=#0050ef;fontColor=#ffffff;" parent="1" vertex="1">
                    <mxGeometry x="-11" y="-22" width="130" height="229" as="geometry"/>
                </mxCell>
                <mxCell id="27" value="" style="shape=partialRectangle;collapsible=0;dropTarget=0;pointerEvents=0;fillColor=none;top=0;left=0;bottom=0;right=0;points=[[0,0.5],[1,0.5]];portConstraint=eastwest;" parent="26" vertex="1">
                    <mxGeometry y="30" width="130" height="22" as="geometry"/>
                </mxCell>
                <mxCell id="28" value="&lt;font style=&quot;font-size: 10px;&quot;&gt;id&lt;/font&gt;" style="shape=partialRectangle;html=1;whiteSpace=wrap;connectable=0;overflow=hidden;fillColor=#b0e3e6;top=0;left=0;bottom=0;right=0;pointerEvents=1;fontSize=10;strokeColor=#0e8088;fontColor=#000000;" parent="27" vertex="1">
                    <mxGeometry width="65" height="22" as="geometry">
                        <mxRectangle width="65" height="22" as="alternateBounds"/>
                    </mxGeometry>
                </mxCell>
                <mxCell id="29" value="&lt;font style=&quot;font-size: 10px;&quot;&gt;varchar&lt;/font&gt;" style="shape=partialRectangle;html=1;whiteSpace=wrap;connectable=0;overflow=hidden;fillColor=#b0e3e6;top=0;left=0;bottom=0;right=0;pointerEvents=1;fontSize=10;strokeColor=#0e8088;fontColor=#000000;" parent="27" vertex="1">
                    <mxGeometry x="65" width="65" height="22" as="geometry">
                        <mxRectangle width="65" height="22" as="alternateBounds"/>
                    </mxGeometry>
                </mxCell>
                <mxCell id="30" value="" style="shape=partialRectangle;collapsible=0;dropTarget=0;pointerEvents=0;fillColor=none;top=0;left=0;bottom=0;right=0;points=[[0,0.5],[1,0.5]];portConstraint=eastwest;" parent="26" vertex="1">
                    <mxGeometry y="52" width="130" height="24" as="geometry"/>
                </mxCell>
                <mxCell id="31" value="first_name" style="shape=partialRectangle;html=1;whiteSpace=wrap;connectable=0;overflow=hidden;fillColor=none;top=0;left=0;bottom=0;right=0;pointerEvents=1;fontColor=#000000;fontSize=10;" parent="30" vertex="1">
                    <mxGeometry width="65" height="24" as="geometry">
                        <mxRectangle width="65" height="24" as="alternateBounds"/>
                    </mxGeometry>
                </mxCell>
                <mxCell id="32" value="string" style="shape=partialRectangle;html=1;whiteSpace=wrap;connectable=0;overflow=hidden;fillColor=none;top=0;left=0;bottom=0;right=0;pointerEvents=1;fontColor=#000000;fontSize=10;" parent="30" vertex="1">
                    <mxGeometry x="65" width="65" height="24" as="geometry">
                        <mxRectangle width="65" height="24" as="alternateBounds"/>
                    </mxGeometry>
                </mxCell>
                <mxCell id="33" value="" style="shape=partialRectangle;collapsible=0;dropTarget=0;pointerEvents=0;fillColor=none;top=0;left=0;bottom=0;right=0;points=[[0,0.5],[1,0.5]];portConstraint=eastwest;" parent="26" vertex="1">
                    <mxGeometry y="76" width="130" height="23" as="geometry"/>
                </mxCell>
                <mxCell id="34" value="last_name" style="shape=partialRectangle;html=1;whiteSpace=wrap;connectable=0;overflow=hidden;fillColor=none;top=0;left=0;bottom=0;right=0;pointerEvents=1;fontSize=10;fontColor=#000000;" parent="33" vertex="1">
                    <mxGeometry width="65" height="23" as="geometry">
                        <mxRectangle width="65" height="23" as="alternateBounds"/>
                    </mxGeometry>
                </mxCell>
                <mxCell id="35" value="string" style="shape=partialRectangle;html=1;whiteSpace=wrap;connectable=0;overflow=hidden;fillColor=none;top=0;left=0;bottom=0;right=0;pointerEvents=1;fontSize=10;fontColor=#000000;" parent="33" vertex="1">
                    <mxGeometry x="65" width="65" height="23" as="geometry">
                        <mxRectangle width="65" height="23" as="alternateBounds"/>
                    </mxGeometry>
                </mxCell>
                <mxCell id="36" value="" style="shape=partialRectangle;collapsible=0;dropTarget=0;pointerEvents=0;fillColor=none;top=0;left=0;bottom=0;right=0;points=[[0,0.5],[1,0.5]];portConstraint=eastwest;" parent="26" vertex="1">
                    <mxGeometry y="99" width="130" height="22" as="geometry"/>
                </mxCell>
                <mxCell id="37" value="username" style="shape=partialRectangle;html=1;whiteSpace=wrap;connectable=0;overflow=hidden;fillColor=none;top=0;left=0;bottom=0;right=0;pointerEvents=1;fontSize=10;fontColor=#000000;" parent="36" vertex="1">
                    <mxGeometry width="65" height="22" as="geometry">
                        <mxRectangle width="65" height="22" as="alternateBounds"/>
                    </mxGeometry>
                </mxCell>
                <mxCell id="38" value="string" style="shape=partialRectangle;html=1;whiteSpace=wrap;connectable=0;overflow=hidden;fillColor=none;top=0;left=0;bottom=0;right=0;pointerEvents=1;fontSize=10;fontColor=#000000;" parent="36" vertex="1">
                    <mxGeometry x="65" width="65" height="22" as="geometry">
                        <mxRectangle width="65" height="22" as="alternateBounds"/>
                    </mxGeometry>
                </mxCell>
                <mxCell id="40" style="shape=partialRectangle;collapsible=0;dropTarget=0;pointerEvents=0;fillColor=none;top=0;left=0;bottom=0;right=0;points=[[0,0.5],[1,0.5]];portConstraint=eastwest;" parent="26" vertex="1">
                    <mxGeometry y="121" width="130" height="22" as="geometry"/>
                </mxCell>
                <mxCell id="41" value="password" style="shape=partialRectangle;html=1;whiteSpace=wrap;connectable=0;overflow=hidden;fillColor=none;top=0;left=0;bottom=0;right=0;pointerEvents=1;fontSize=10;fontColor=#000000;" parent="40" vertex="1">
                    <mxGeometry width="65" height="22" as="geometry">
                        <mxRectangle width="65" height="22" as="alternateBounds"/>
                    </mxGeometry>
                </mxCell>
                <mxCell id="42" value="string" style="shape=partialRectangle;html=1;whiteSpace=wrap;connectable=0;overflow=hidden;fillColor=none;top=0;left=0;bottom=0;right=0;pointerEvents=1;fontSize=10;fontColor=#000000;" parent="40" vertex="1">
                    <mxGeometry x="65" width="65" height="22" as="geometry">
                        <mxRectangle width="65" height="22" as="alternateBounds"/>
                    </mxGeometry>
                </mxCell>
                <mxCell id="44" style="shape=partialRectangle;collapsible=0;dropTarget=0;pointerEvents=0;fillColor=none;top=0;left=0;bottom=0;right=0;points=[[0,0.5],[1,0.5]];portConstraint=eastwest;" parent="26" vertex="1">
                    <mxGeometry y="143" width="130" height="22" as="geometry"/>
                </mxCell>
                <mxCell id="45" value="profile_image" style="shape=partialRectangle;html=1;whiteSpace=wrap;connectable=0;overflow=hidden;fillColor=none;top=0;left=0;bottom=0;right=0;pointerEvents=1;fontSize=10;fontColor=#000000;" parent="44" vertex="1">
                    <mxGeometry width="65" height="22" as="geometry">
                        <mxRectangle width="65" height="22" as="alternateBounds"/>
                    </mxGeometry>
                </mxCell>
                <mxCell id="46" value="string" style="shape=partialRectangle;html=1;whiteSpace=wrap;connectable=0;overflow=hidden;fillColor=none;top=0;left=0;bottom=0;right=0;pointerEvents=1;fontSize=10;fontColor=#000000;" parent="44" vertex="1">
                    <mxGeometry x="65" width="65" height="22" as="geometry">
                        <mxRectangle width="65" height="22" as="alternateBounds"/>
                    </mxGeometry>
                </mxCell>
                <mxCell id="47" style="shape=partialRectangle;collapsible=0;dropTarget=0;pointerEvents=0;fillColor=none;top=0;left=0;bottom=0;right=0;points=[[0,0.5],[1,0.5]];portConstraint=eastwest;" parent="26" vertex="1">
                    <mxGeometry y="165" width="130" height="22" as="geometry"/>
                </mxCell>
                <mxCell id="48" value="is_active" style="shape=partialRectangle;html=1;whiteSpace=wrap;connectable=0;overflow=hidden;fillColor=none;top=0;left=0;bottom=0;right=0;pointerEvents=1;fontSize=10;fontColor=#000000;" parent="47" vertex="1">
                    <mxGeometry width="65" height="22" as="geometry">
                        <mxRectangle width="65" height="22" as="alternateBounds"/>
                    </mxGeometry>
                </mxCell>
                <mxCell id="49" value="boolean" style="shape=partialRectangle;html=1;whiteSpace=wrap;connectable=0;overflow=hidden;fillColor=none;top=0;left=0;bottom=0;right=0;pointerEvents=1;fontSize=10;fontColor=#000000;" parent="47" vertex="1">
                    <mxGeometry x="65" width="65" height="22" as="geometry">
                        <mxRectangle width="65" height="22" as="alternateBounds"/>
                    </mxGeometry>
                </mxCell>
                <mxCell id="50" style="shape=partialRectangle;collapsible=0;dropTarget=0;pointerEvents=0;fillColor=none;top=0;left=0;bottom=0;right=0;points=[[0,0.5],[1,0.5]];portConstraint=eastwest;" parent="26" vertex="1">
                    <mxGeometry y="187" width="130" height="22" as="geometry"/>
                </mxCell>
                <mxCell id="51" value="created_at" style="shape=partialRectangle;html=1;whiteSpace=wrap;connectable=0;overflow=hidden;fillColor=none;top=0;left=0;bottom=0;right=0;pointerEvents=1;fontSize=10;fontColor=#000000;" parent="50" vertex="1">
                    <mxGeometry width="65" height="22" as="geometry">
                        <mxRectangle width="65" height="22" as="alternateBounds"/>
                    </mxGeometry>
                </mxCell>
                <mxCell id="52" value="datetime" style="shape=partialRectangle;html=1;whiteSpace=wrap;connectable=0;overflow=hidden;fillColor=none;top=0;left=0;bottom=0;right=0;pointerEvents=1;fontSize=10;fontColor=#000000;" parent="50" vertex="1">
                    <mxGeometry x="65" width="65" height="22" as="geometry">
                        <mxRectangle width="65" height="22" as="alternateBounds"/>
                    </mxGeometry>
                </mxCell>
                <mxCell id="53" style="shape=partialRectangle;collapsible=0;dropTarget=0;pointerEvents=0;fillColor=none;top=0;left=0;bottom=0;right=0;points=[[0,0.5],[1,0.5]];portConstraint=eastwest;" parent="26" vertex="1">
                    <mxGeometry y="209" width="130" height="20" as="geometry"/>
                </mxCell>
                <mxCell id="54" value="updated_at" style="shape=partialRectangle;html=1;whiteSpace=wrap;connectable=0;overflow=hidden;fillColor=none;top=0;left=0;bottom=0;right=0;pointerEvents=1;fontSize=10;fontColor=#000000;" parent="53" vertex="1">
                    <mxGeometry width="65" height="20" as="geometry">
                        <mxRectangle width="65" height="20" as="alternateBounds"/>
                    </mxGeometry>
                </mxCell>
                <mxCell id="55" value="datetime" style="shape=partialRectangle;html=1;whiteSpace=wrap;connectable=0;overflow=hidden;fillColor=none;top=0;left=0;bottom=0;right=0;pointerEvents=1;fontSize=10;fontColor=#000000;" parent="53" vertex="1">
                    <mxGeometry x="65" width="65" height="20" as="geometry">
                        <mxRectangle width="65" height="20" as="alternateBounds"/>
                    </mxGeometry>
                </mxCell>
                <mxCell id="56" value="Menu" style="shape=table;startSize=30;container=1;collapsible=0;childLayout=tableLayout;strokeWidth=1;strokeColor=#000000;fillColor=#a20025;fontColor=#ffffff;" parent="1" vertex="1">
                    <mxGeometry x="222" y="-22" width="130" height="207" as="geometry"/>
                </mxCell>
                <mxCell id="57" value="" style="shape=partialRectangle;collapsible=0;dropTarget=0;pointerEvents=0;fillColor=none;top=0;left=0;bottom=0;right=0;points=[[0,0.5],[1,0.5]];portConstraint=eastwest;" parent="56" vertex="1">
                    <mxGeometry y="30" width="130" height="22" as="geometry"/>
                </mxCell>
                <mxCell id="58" value="&lt;font style=&quot;font-size: 10px;&quot;&gt;id&lt;/font&gt;" style="shape=partialRectangle;html=1;whiteSpace=wrap;connectable=0;overflow=hidden;fillColor=#d0cee2;top=0;left=0;bottom=0;right=0;pointerEvents=1;fontSize=10;strokeColor=#000000;fontColor=#000000;" parent="57" vertex="1">
                    <mxGeometry width="65" height="22" as="geometry">
                        <mxRectangle width="65" height="22" as="alternateBounds"/>
                    </mxGeometry>
                </mxCell>
                <mxCell id="59" value="&lt;font style=&quot;font-size: 10px;&quot;&gt;varchar&lt;/font&gt;" style="shape=partialRectangle;html=1;whiteSpace=wrap;connectable=0;overflow=hidden;fillColor=#d0cee2;top=0;left=0;bottom=0;right=0;pointerEvents=1;fontSize=10;strokeColor=#000000;fontColor=#000000;" parent="57" vertex="1">
                    <mxGeometry x="65" width="65" height="22" as="geometry">
                        <mxRectangle width="65" height="22" as="alternateBounds"/>
                    </mxGeometry>
                </mxCell>
                <mxCell id="60" value="" style="shape=partialRectangle;collapsible=0;dropTarget=0;pointerEvents=0;fillColor=none;top=0;left=0;bottom=0;right=0;points=[[0,0.5],[1,0.5]];portConstraint=eastwest;" parent="56" vertex="1">
                    <mxGeometry y="52" width="130" height="24" as="geometry"/>
                </mxCell>
                <mxCell id="61" value="name" style="shape=partialRectangle;html=1;whiteSpace=wrap;connectable=0;overflow=hidden;fillColor=none;top=0;left=0;bottom=0;right=0;pointerEvents=1;fontColor=#000000;fontSize=10;" parent="60" vertex="1">
                    <mxGeometry width="65" height="24" as="geometry">
                        <mxRectangle width="65" height="24" as="alternateBounds"/>
                    </mxGeometry>
                </mxCell>
                <mxCell id="62" value="string" style="shape=partialRectangle;html=1;whiteSpace=wrap;connectable=0;overflow=hidden;fillColor=none;top=0;left=0;bottom=0;right=0;pointerEvents=1;fontColor=#000000;fontSize=10;" parent="60" vertex="1">
                    <mxGeometry x="65" width="65" height="24" as="geometry">
                        <mxRectangle width="65" height="24" as="alternateBounds"/>
                    </mxGeometry>
                </mxCell>
                <mxCell id="63" value="" style="shape=partialRectangle;collapsible=0;dropTarget=0;pointerEvents=0;fillColor=none;top=0;left=0;bottom=0;right=0;points=[[0,0.5],[1,0.5]];portConstraint=eastwest;" parent="56" vertex="1">
                    <mxGeometry y="76" width="130" height="23" as="geometry"/>
                </mxCell>
                <mxCell id="64" value="image_url" style="shape=partialRectangle;html=1;whiteSpace=wrap;connectable=0;overflow=hidden;fillColor=none;top=0;left=0;bottom=0;right=0;pointerEvents=1;fontSize=10;fontColor=#000000;" parent="63" vertex="1">
                    <mxGeometry width="65" height="23" as="geometry">
                        <mxRectangle width="65" height="23" as="alternateBounds"/>
                    </mxGeometry>
                </mxCell>
                <mxCell id="65" value="string" style="shape=partialRectangle;html=1;whiteSpace=wrap;connectable=0;overflow=hidden;fillColor=none;top=0;left=0;bottom=0;right=0;pointerEvents=1;fontSize=10;fontColor=#000000;" parent="63" vertex="1">
                    <mxGeometry x="65" width="65" height="23" as="geometry">
                        <mxRectangle width="65" height="23" as="alternateBounds"/>
                    </mxGeometry>
                </mxCell>
                <mxCell id="66" value="" style="shape=partialRectangle;collapsible=0;dropTarget=0;pointerEvents=0;fillColor=none;top=0;left=0;bottom=0;right=0;points=[[0,0.5],[1,0.5]];portConstraint=eastwest;" parent="56" vertex="1">
                    <mxGeometry y="99" width="130" height="22" as="geometry"/>
                </mxCell>
                <mxCell id="67" value="description" style="shape=partialRectangle;html=1;whiteSpace=wrap;connectable=0;overflow=hidden;fillColor=none;top=0;left=0;bottom=0;right=0;pointerEvents=1;fontSize=10;fontColor=#000000;" parent="66" vertex="1">
                    <mxGeometry width="65" height="22" as="geometry">
                        <mxRectangle width="65" height="22" as="alternateBounds"/>
                    </mxGeometry>
                </mxCell>
                <mxCell id="68" value="string" style="shape=partialRectangle;html=1;whiteSpace=wrap;connectable=0;overflow=hidden;fillColor=none;top=0;left=0;bottom=0;right=0;pointerEvents=1;fontSize=10;fontColor=#000000;" parent="66" vertex="1">
                    <mxGeometry x="65" width="65" height="22" as="geometry">
                        <mxRectangle width="65" height="22" as="alternateBounds"/>
                    </mxGeometry>
                </mxCell>
                <mxCell id="72" style="shape=partialRectangle;collapsible=0;dropTarget=0;pointerEvents=0;fillColor=none;top=0;left=0;bottom=0;right=0;points=[[0,0.5],[1,0.5]];portConstraint=eastwest;" parent="56" vertex="1">
                    <mxGeometry y="121" width="130" height="22" as="geometry"/>
                </mxCell>
                <mxCell id="73" value="date" style="shape=partialRectangle;html=1;whiteSpace=wrap;connectable=0;overflow=hidden;fillColor=none;top=0;left=0;bottom=0;right=0;pointerEvents=1;fontSize=10;fontColor=#000000;" parent="72" vertex="1">
                    <mxGeometry width="65" height="22" as="geometry">
                        <mxRectangle width="65" height="22" as="alternateBounds"/>
                    </mxGeometry>
                </mxCell>
                <mxCell id="74" value="datetime" style="shape=partialRectangle;html=1;whiteSpace=wrap;connectable=0;overflow=hidden;fillColor=none;top=0;left=0;bottom=0;right=0;pointerEvents=1;fontSize=10;fontColor=#000000;" parent="72" vertex="1">
                    <mxGeometry x="65" width="65" height="22" as="geometry">
                        <mxRectangle width="65" height="22" as="alternateBounds"/>
                    </mxGeometry>
                </mxCell>
                <mxCell id="75" style="shape=partialRectangle;collapsible=0;dropTarget=0;pointerEvents=0;fillColor=none;top=0;left=0;bottom=0;right=0;points=[[0,0.5],[1,0.5]];portConstraint=eastwest;" parent="56" vertex="1">
                    <mxGeometry y="143" width="130" height="22" as="geometry"/>
                </mxCell>
                <mxCell id="76" value="user_id" style="shape=partialRectangle;html=1;whiteSpace=wrap;connectable=0;overflow=hidden;fillColor=#b0e3e6;top=0;left=0;bottom=0;right=0;pointerEvents=1;fontSize=10;strokeColor=#000000;fontColor=#000000;" parent="75" vertex="1">
                    <mxGeometry width="65" height="22" as="geometry">
                        <mxRectangle width="65" height="22" as="alternateBounds"/>
                    </mxGeometry>
                </mxCell>
                <mxCell id="77" value="integer" style="shape=partialRectangle;html=1;whiteSpace=wrap;connectable=0;overflow=hidden;fillColor=#b0e3e6;top=0;left=0;bottom=0;right=0;pointerEvents=1;fontSize=10;strokeColor=#000000;fontColor=#000000;" parent="75" vertex="1">
                    <mxGeometry x="65" width="65" height="22" as="geometry">
                        <mxRectangle width="65" height="22" as="alternateBounds"/>
                    </mxGeometry>
                </mxCell>
                <mxCell id="78" style="shape=partialRectangle;collapsible=0;dropTarget=0;pointerEvents=0;fillColor=none;top=0;left=0;bottom=0;right=0;points=[[0,0.5],[1,0.5]];portConstraint=eastwest;" parent="56" vertex="1">
                    <mxGeometry y="165" width="130" height="22" as="geometry"/>
                </mxCell>
                <mxCell id="79" value="created_at" style="shape=partialRectangle;html=1;whiteSpace=wrap;connectable=0;overflow=hidden;fillColor=none;top=0;left=0;bottom=0;right=0;pointerEvents=1;fontSize=10;fontColor=#000000;" parent="78" vertex="1">
                    <mxGeometry width="65" height="22" as="geometry">
                        <mxRectangle width="65" height="22" as="alternateBounds"/>
                    </mxGeometry>
                </mxCell>
                <mxCell id="80" value="datetime" style="shape=partialRectangle;html=1;whiteSpace=wrap;connectable=0;overflow=hidden;fillColor=none;top=0;left=0;bottom=0;right=0;pointerEvents=1;fontSize=10;fontColor=#000000;" parent="78" vertex="1">
                    <mxGeometry x="65" width="65" height="22" as="geometry">
                        <mxRectangle width="65" height="22" as="alternateBounds"/>
                    </mxGeometry>
                </mxCell>
                <mxCell id="81" style="shape=partialRectangle;collapsible=0;dropTarget=0;pointerEvents=0;fillColor=none;top=0;left=0;bottom=0;right=0;points=[[0,0.5],[1,0.5]];portConstraint=eastwest;" parent="56" vertex="1">
                    <mxGeometry y="187" width="130" height="20" as="geometry"/>
                </mxCell>
                <mxCell id="82" value="updated_at" style="shape=partialRectangle;html=1;whiteSpace=wrap;connectable=0;overflow=hidden;fillColor=none;top=0;left=0;bottom=0;right=0;pointerEvents=1;fontSize=10;fontColor=#000000;" parent="81" vertex="1">
                    <mxGeometry width="65" height="20" as="geometry">
                        <mxRectangle width="65" height="20" as="alternateBounds"/>
                    </mxGeometry>
                </mxCell>
                <mxCell id="83" value="datetime" style="shape=partialRectangle;html=1;whiteSpace=wrap;connectable=0;overflow=hidden;fillColor=none;top=0;left=0;bottom=0;right=0;pointerEvents=1;fontSize=10;fontColor=#000000;" parent="81" vertex="1">
                    <mxGeometry x="65" width="65" height="20" as="geometry">
                        <mxRectangle width="65" height="20" as="alternateBounds"/>
                    </mxGeometry>
                </mxCell>
                <mxCell id="84" value="&lt;span style=&quot;font-size: 10px;&quot;&gt;one user&lt;br style=&quot;font-size: 10px;&quot;&gt;has many&lt;br style=&quot;font-size: 10px;&quot;&gt;menus&lt;/span&gt;" style="edgeStyle=orthogonalEdgeStyle;html=1;exitX=0;exitY=0.5;exitDx=0;exitDy=0;entryX=1;entryY=0.5;entryDx=0;entryDy=0;fontSize=10;fontColor=#000000;strokeColor=#000000;startArrow=ERmany;startFill=0;endArrow=none;endFill=0;labelBackgroundColor=#FFFFFF;" parent="1" source="75" target="27" edge="1">
                    <mxGeometry relative="1" as="geometry"/>
                </mxCell>
                <mxCell id="85" value="Course" style="shape=table;startSize=30;container=1;collapsible=0;childLayout=tableLayout;strokeWidth=1;strokeColor=#000000;fillColor=#60a917;fontColor=#ffffff;" parent="1" vertex="1">
                    <mxGeometry x="467" y="29" width="130" height="98" as="geometry"/>
                </mxCell>
                <mxCell id="86" value="" style="shape=partialRectangle;collapsible=0;dropTarget=0;pointerEvents=0;fillColor=none;top=0;left=0;bottom=0;right=0;points=[[0,0.5],[1,0.5]];portConstraint=eastwest;" parent="85" vertex="1">
                    <mxGeometry y="30" width="130" height="22" as="geometry"/>
                </mxCell>
                <mxCell id="87" value="&lt;font style=&quot;font-size: 10px;&quot;&gt;id&lt;/font&gt;" style="shape=partialRectangle;html=1;whiteSpace=wrap;connectable=0;overflow=hidden;fillColor=#fff2cc;top=0;left=0;bottom=0;right=0;pointerEvents=1;fontSize=10;strokeColor=#000000;fontColor=#000000;" parent="86" vertex="1">
                    <mxGeometry width="65" height="22" as="geometry">
                        <mxRectangle width="65" height="22" as="alternateBounds"/>
                    </mxGeometry>
                </mxCell>
                <mxCell id="88" value="&lt;font style=&quot;font-size: 10px;&quot;&gt;varchar&lt;/font&gt;" style="shape=partialRectangle;html=1;whiteSpace=wrap;connectable=0;overflow=hidden;fillColor=#fff2cc;top=0;left=0;bottom=0;right=0;pointerEvents=1;fontSize=10;strokeColor=#000000;fontColor=#000000;" parent="86" vertex="1">
                    <mxGeometry x="65" width="65" height="22" as="geometry">
                        <mxRectangle width="65" height="22" as="alternateBounds"/>
                    </mxGeometry>
                </mxCell>
                <mxCell id="89" value="" style="shape=partialRectangle;collapsible=0;dropTarget=0;pointerEvents=0;fillColor=none;top=0;left=0;bottom=0;right=0;points=[[0,0.5],[1,0.5]];portConstraint=eastwest;" parent="85" vertex="1">
                    <mxGeometry y="52" width="130" height="24" as="geometry"/>
                </mxCell>
                <mxCell id="90" value="type" style="shape=partialRectangle;html=1;whiteSpace=wrap;connectable=0;overflow=hidden;fillColor=none;top=0;left=0;bottom=0;right=0;pointerEvents=1;fontColor=#000000;fontSize=10;" parent="89" vertex="1">
                    <mxGeometry width="65" height="24" as="geometry">
                        <mxRectangle width="65" height="24" as="alternateBounds"/>
                    </mxGeometry>
                </mxCell>
                <mxCell id="91" value="string" style="shape=partialRectangle;html=1;whiteSpace=wrap;connectable=0;overflow=hidden;fillColor=none;top=0;left=0;bottom=0;right=0;pointerEvents=1;fontColor=#000000;fontSize=10;" parent="89" vertex="1">
                    <mxGeometry x="65" width="65" height="24" as="geometry">
                        <mxRectangle width="65" height="24" as="alternateBounds"/>
                    </mxGeometry>
                </mxCell>
                <mxCell id="104" style="shape=partialRectangle;collapsible=0;dropTarget=0;pointerEvents=0;fillColor=none;top=0;left=0;bottom=0;right=0;points=[[0,0.5],[1,0.5]];portConstraint=eastwest;" parent="85" vertex="1">
                    <mxGeometry y="76" width="130" height="22" as="geometry"/>
                </mxCell>
                <mxCell id="105" value="menu_id" style="shape=partialRectangle;html=1;whiteSpace=wrap;connectable=0;overflow=hidden;fillColor=#d0cee2;top=0;left=0;bottom=0;right=0;pointerEvents=1;fontSize=10;strokeColor=#000000;fontColor=#000000;" parent="104" vertex="1">
                    <mxGeometry width="65" height="22" as="geometry">
                        <mxRectangle width="65" height="22" as="alternateBounds"/>
                    </mxGeometry>
                </mxCell>
                <mxCell id="106" value="integer" style="shape=partialRectangle;html=1;whiteSpace=wrap;connectable=0;overflow=hidden;fillColor=#d0cee2;top=0;left=0;bottom=0;right=0;pointerEvents=1;fontSize=10;strokeColor=#000000;fontColor=#000000;" parent="104" vertex="1">
                    <mxGeometry x="65" width="65" height="22" as="geometry">
                        <mxRectangle width="65" height="22" as="alternateBounds"/>
                    </mxGeometry>
                </mxCell>
                <mxCell id="113" style="edgeStyle=orthogonalEdgeStyle;html=1;exitX=0;exitY=0.5;exitDx=0;exitDy=0;entryX=1;entryY=0.5;entryDx=0;entryDy=0;fontSize=8;fontColor=#000000;startArrow=ERmany;startFill=0;endArrow=none;endFill=0;strokeColor=#000000;labelBackgroundColor=#000000;" parent="1" source="104" target="57" edge="1">
                    <mxGeometry relative="1" as="geometry"/>
                </mxCell>
                <mxCell id="114" value="&lt;span style=&quot;font-size: 10px;&quot;&gt;one menu&lt;br style=&quot;font-size: 10px;&quot;&gt;has many&lt;br style=&quot;font-size: 10px;&quot;&gt;courses&lt;/span&gt;" style="edgeLabel;html=1;align=center;verticalAlign=middle;resizable=0;points=[];fontSize=10;fontColor=#000000;labelBackgroundColor=#FFFFFF;" parent="113" vertex="1" connectable="0">
                    <mxGeometry x="-0.0046" y="1" relative="1" as="geometry">
                        <mxPoint as="offset"/>
                    </mxGeometry>
                </mxCell>
                <mxCell id="118" value="Ingredient" style="shape=table;startSize=30;container=1;collapsible=0;childLayout=tableLayout;strokeWidth=1;strokeColor=#000000;fillColor=#6a00ff;fontColor=#ffffff;" parent="1" vertex="1">
                    <mxGeometry x="470" y="374" width="130" height="96" as="geometry"/>
                </mxCell>
                <mxCell id="119" value="" style="shape=partialRectangle;collapsible=0;dropTarget=0;pointerEvents=0;fillColor=none;top=0;left=0;bottom=0;right=0;points=[[0,0.5],[1,0.5]];portConstraint=eastwest;" parent="118" vertex="1">
                    <mxGeometry y="30" width="130" height="22" as="geometry"/>
                </mxCell>
                <mxCell id="120" value="&lt;font style=&quot;font-size: 10px;&quot;&gt;id&lt;/font&gt;" style="shape=partialRectangle;html=1;whiteSpace=wrap;connectable=0;overflow=hidden;fillColor=none;top=0;left=0;bottom=0;right=0;pointerEvents=1;fontColor=#000000;fontSize=10;" parent="119" vertex="1">
                    <mxGeometry width="65" height="22" as="geometry">
                        <mxRectangle width="65" height="22" as="alternateBounds"/>
                    </mxGeometry>
                </mxCell>
                <mxCell id="121" value="&lt;font style=&quot;font-size: 10px;&quot;&gt;varchar&lt;/font&gt;" style="shape=partialRectangle;html=1;whiteSpace=wrap;connectable=0;overflow=hidden;fillColor=none;top=0;left=0;bottom=0;right=0;pointerEvents=1;fontColor=#000000;fontSize=10;" parent="119" vertex="1">
                    <mxGeometry x="65" width="65" height="22" as="geometry">
                        <mxRectangle width="65" height="22" as="alternateBounds"/>
                    </mxGeometry>
                </mxCell>
                <mxCell id="125" value="" style="shape=partialRectangle;collapsible=0;dropTarget=0;pointerEvents=0;fillColor=none;top=0;left=0;bottom=0;right=0;points=[[0,0.5],[1,0.5]];portConstraint=eastwest;" parent="118" vertex="1">
                    <mxGeometry y="52" width="130" height="22" as="geometry"/>
                </mxCell>
                <mxCell id="126" value="description" style="shape=partialRectangle;html=1;whiteSpace=wrap;connectable=0;overflow=hidden;fillColor=none;top=0;left=0;bottom=0;right=0;pointerEvents=1;fontSize=10;fontColor=#000000;" parent="125" vertex="1">
                    <mxGeometry width="65" height="22" as="geometry">
                        <mxRectangle width="65" height="22" as="alternateBounds"/>
                    </mxGeometry>
                </mxCell>
                <mxCell id="127" value="string" style="shape=partialRectangle;html=1;whiteSpace=wrap;connectable=0;overflow=hidden;fillColor=none;top=0;left=0;bottom=0;right=0;pointerEvents=1;fontSize=10;fontColor=#000000;" parent="125" vertex="1">
                    <mxGeometry x="65" width="65" height="22" as="geometry">
                        <mxRectangle width="65" height="22" as="alternateBounds"/>
                    </mxGeometry>
                </mxCell>
                <mxCell id="128" style="shape=partialRectangle;collapsible=0;dropTarget=0;pointerEvents=0;fillColor=none;top=0;left=0;bottom=0;right=0;points=[[0,0.5],[1,0.5]];portConstraint=eastwest;" parent="118" vertex="1">
                    <mxGeometry y="74" width="130" height="22" as="geometry"/>
                </mxCell>
                <mxCell id="129" value="dish_id" style="shape=partialRectangle;html=1;whiteSpace=wrap;connectable=0;overflow=hidden;fillColor=#fad9d5;top=0;left=0;bottom=0;right=0;pointerEvents=1;fontSize=10;strokeColor=#000000;fontColor=#000000;" parent="128" vertex="1">
                    <mxGeometry width="65" height="22" as="geometry">
                        <mxRectangle width="65" height="22" as="alternateBounds"/>
                    </mxGeometry>
                </mxCell>
                <mxCell id="130" value="integer" style="shape=partialRectangle;html=1;whiteSpace=wrap;connectable=0;overflow=hidden;fillColor=#fad9d5;top=0;left=0;bottom=0;right=0;pointerEvents=1;fontSize=10;strokeColor=#000000;fontColor=#000000;" parent="128" vertex="1">
                    <mxGeometry x="65" width="65" height="22" as="geometry">
                        <mxRectangle width="65" height="22" as="alternateBounds"/>
                    </mxGeometry>
                </mxCell>
                <mxCell id="144" value="Liking" style="shape=table;startSize=30;container=1;collapsible=0;childLayout=tableLayout;strokeWidth=1;strokeColor=#000000;fillColor=#e3c800;fontColor=#000000;" parent="1" vertex="1">
                    <mxGeometry x="104" y="267" width="130" height="138" as="geometry"/>
                </mxCell>
                <mxCell id="145" value="" style="shape=partialRectangle;collapsible=0;dropTarget=0;pointerEvents=0;fillColor=none;top=0;left=0;bottom=0;right=0;points=[[0,0.5],[1,0.5]];portConstraint=eastwest;" parent="144" vertex="1">
                    <mxGeometry y="30" width="130" height="22" as="geometry"/>
                </mxCell>
                <mxCell id="146" value="&lt;font style=&quot;font-size: 10px;&quot;&gt;id&lt;/font&gt;" style="shape=partialRectangle;html=1;whiteSpace=wrap;connectable=0;overflow=hidden;fillColor=none;top=0;left=0;bottom=0;right=0;pointerEvents=1;fontColor=#000000;fontSize=10;" parent="145" vertex="1">
                    <mxGeometry width="65" height="22" as="geometry">
                        <mxRectangle width="65" height="22" as="alternateBounds"/>
                    </mxGeometry>
                </mxCell>
                <mxCell id="147" value="&lt;font style=&quot;font-size: 10px;&quot;&gt;varchar&lt;/font&gt;" style="shape=partialRectangle;html=1;whiteSpace=wrap;connectable=0;overflow=hidden;fillColor=none;top=0;left=0;bottom=0;right=0;pointerEvents=1;fontColor=#000000;fontSize=10;" parent="145" vertex="1">
                    <mxGeometry x="65" width="65" height="22" as="geometry">
                        <mxRectangle width="65" height="22" as="alternateBounds"/>
                    </mxGeometry>
                </mxCell>
                <mxCell id="148" value="" style="shape=partialRectangle;collapsible=0;dropTarget=0;pointerEvents=0;fillColor=none;top=0;left=0;bottom=0;right=0;points=[[0,0.5],[1,0.5]];portConstraint=eastwest;" parent="144" vertex="1">
                    <mxGeometry y="52" width="130" height="24" as="geometry"/>
                </mxCell>
                <mxCell id="149" value="liker_id" style="shape=partialRectangle;html=1;whiteSpace=wrap;connectable=0;overflow=hidden;fillColor=#b0e3e6;top=0;left=0;bottom=0;right=0;pointerEvents=1;fontSize=10;strokeColor=#000000;fontColor=#000000;" parent="148" vertex="1">
                    <mxGeometry width="65" height="24" as="geometry">
                        <mxRectangle width="65" height="24" as="alternateBounds"/>
                    </mxGeometry>
                </mxCell>
                <mxCell id="150" value="string" style="shape=partialRectangle;html=1;whiteSpace=wrap;connectable=0;overflow=hidden;fillColor=#b0e3e6;top=0;left=0;bottom=0;right=0;pointerEvents=1;fontSize=10;strokeColor=#000000;fontColor=#000000;" parent="148" vertex="1">
                    <mxGeometry x="65" width="65" height="24" as="geometry">
                        <mxRectangle width="65" height="24" as="alternateBounds"/>
                    </mxGeometry>
                </mxCell>
                <mxCell id="151" value="" style="shape=partialRectangle;collapsible=0;dropTarget=0;pointerEvents=0;fillColor=none;top=0;left=0;bottom=0;right=0;points=[[0,0.5],[1,0.5]];portConstraint=eastwest;" parent="144" vertex="1">
                    <mxGeometry y="76" width="130" height="22" as="geometry"/>
                </mxCell>
                <mxCell id="152" value="menu_id" style="shape=partialRectangle;html=1;whiteSpace=wrap;connectable=0;overflow=hidden;fillColor=#d0cee2;top=0;left=0;bottom=0;right=0;pointerEvents=1;fontSize=10;strokeColor=#56517e;fontColor=#000000;" parent="151" vertex="1">
                    <mxGeometry width="65" height="22" as="geometry">
                        <mxRectangle width="65" height="22" as="alternateBounds"/>
                    </mxGeometry>
                </mxCell>
                <mxCell id="153" value="string" style="shape=partialRectangle;html=1;whiteSpace=wrap;connectable=0;overflow=hidden;fillColor=#d0cee2;top=0;left=0;bottom=0;right=0;pointerEvents=1;fontSize=10;strokeColor=#56517e;fontColor=#000000;" parent="151" vertex="1">
                    <mxGeometry x="65" width="65" height="22" as="geometry">
                        <mxRectangle width="65" height="22" as="alternateBounds"/>
                    </mxGeometry>
                </mxCell>
                <mxCell id="157" style="shape=partialRectangle;collapsible=0;dropTarget=0;pointerEvents=0;fillColor=none;top=0;left=0;bottom=0;right=0;points=[[0,0.5],[1,0.5]];portConstraint=eastwest;" parent="144" vertex="1">
                    <mxGeometry y="98" width="130" height="20" as="geometry"/>
                </mxCell>
                <mxCell id="158" value="created_at" style="shape=partialRectangle;html=1;whiteSpace=wrap;connectable=0;overflow=hidden;fillColor=none;top=0;left=0;bottom=0;right=0;pointerEvents=1;fontSize=10;fontColor=#000000;" parent="157" vertex="1">
                    <mxGeometry width="65" height="20" as="geometry">
                        <mxRectangle width="65" height="20" as="alternateBounds"/>
                    </mxGeometry>
                </mxCell>
                <mxCell id="159" value="datetime" style="shape=partialRectangle;html=1;whiteSpace=wrap;connectable=0;overflow=hidden;fillColor=none;top=0;left=0;bottom=0;right=0;pointerEvents=1;fontSize=10;fontColor=#000000;" parent="157" vertex="1">
                    <mxGeometry x="65" width="65" height="20" as="geometry">
                        <mxRectangle width="65" height="20" as="alternateBounds"/>
                    </mxGeometry>
                </mxCell>
                <mxCell id="162" style="shape=partialRectangle;collapsible=0;dropTarget=0;pointerEvents=0;fillColor=none;top=0;left=0;bottom=0;right=0;points=[[0,0.5],[1,0.5]];portConstraint=eastwest;" parent="144" vertex="1">
                    <mxGeometry y="118" width="130" height="20" as="geometry"/>
                </mxCell>
                <mxCell id="163" value="updated_at" style="shape=partialRectangle;html=1;whiteSpace=wrap;connectable=0;overflow=hidden;fillColor=none;top=0;left=0;bottom=0;right=0;pointerEvents=1;fontSize=10;fontColor=#000000;" parent="162" vertex="1">
                    <mxGeometry width="65" height="20" as="geometry">
                        <mxRectangle width="65" height="20" as="alternateBounds"/>
                    </mxGeometry>
                </mxCell>
                <mxCell id="164" value="datetime" style="shape=partialRectangle;html=1;whiteSpace=wrap;connectable=0;overflow=hidden;fillColor=none;top=0;left=0;bottom=0;right=0;pointerEvents=1;fontSize=10;fontColor=#000000;" parent="162" vertex="1">
                    <mxGeometry x="65" width="65" height="20" as="geometry">
                        <mxRectangle width="65" height="20" as="alternateBounds"/>
                    </mxGeometry>
                </mxCell>
                <mxCell id="166" style="edgeStyle=orthogonalEdgeStyle;html=1;exitX=0;exitY=0.5;exitDx=0;exitDy=0;labelBackgroundColor=#FFFFFF;fontSize=10;fontColor=#000000;startArrow=ERmany;startFill=0;endArrow=none;endFill=0;strokeColor=#000000;entryX=0;entryY=0.5;entryDx=0;entryDy=0;" parent="1" source="148" target="27" edge="1">
                    <mxGeometry relative="1" as="geometry">
                        <mxPoint x="120" y="-3" as="targetPoint"/>
                    </mxGeometry>
                </mxCell>
                <mxCell id="170" value="one user&amp;nbsp; (as liker)&lt;br&gt;has many&lt;br&gt;menus (as liked_menus)&lt;br&gt;through favorites" style="edgeLabel;html=1;align=center;verticalAlign=middle;resizable=0;points=[];fontSize=10;fontColor=#000000;labelBackgroundColor=#FFFFFF;" parent="166" vertex="1" connectable="0">
                    <mxGeometry x="-0.0816" y="-2" relative="1" as="geometry">
                        <mxPoint y="23" as="offset"/>
                    </mxGeometry>
                </mxCell>
                <mxCell id="168" style="edgeStyle=orthogonalEdgeStyle;html=1;exitX=1;exitY=0.5;exitDx=0;exitDy=0;entryX=1;entryY=0.5;entryDx=0;entryDy=0;labelBackgroundColor=#FFFFFF;fontSize=10;fontColor=#000000;startArrow=ERmany;startFill=0;endArrow=none;endFill=0;strokeColor=#000000;" parent="1" source="151" target="57" edge="1">
                    <mxGeometry relative="1" as="geometry"/>
                </mxCell>
                <mxCell id="169" value="one menu (as liked_menu)&lt;br&gt;has many&lt;br&gt;users (as likers)&lt;br&gt;through favorites" style="edgeLabel;html=1;align=center;verticalAlign=middle;resizable=0;points=[];fontSize=10;fontColor=#000000;labelBackgroundColor=#FFFFFF;" parent="168" vertex="1" connectable="0">
                    <mxGeometry x="0.0409" relative="1" as="geometry">
                        <mxPoint as="offset"/>
                    </mxGeometry>
                </mxCell>
                <mxCell id="171" value="Dish" style="shape=table;startSize=30;container=1;collapsible=0;childLayout=tableLayout;strokeWidth=1;strokeColor=#000000;fillColor=#d80073;fontColor=#ffffff;" vertex="1" parent="1">
                    <mxGeometry x="470" y="207" width="130" height="120" as="geometry"/>
                </mxCell>
                <mxCell id="172" value="" style="shape=partialRectangle;collapsible=0;dropTarget=0;pointerEvents=0;fillColor=none;top=0;left=0;bottom=0;right=0;points=[[0,0.5],[1,0.5]];portConstraint=eastwest;" vertex="1" parent="171">
                    <mxGeometry y="30" width="130" height="22" as="geometry"/>
                </mxCell>
                <mxCell id="173" value="&lt;font style=&quot;font-size: 10px;&quot;&gt;id&lt;/font&gt;" style="shape=partialRectangle;html=1;whiteSpace=wrap;connectable=0;overflow=hidden;fillColor=#fad9d5;top=0;left=0;bottom=0;right=0;pointerEvents=1;fontSize=10;strokeColor=#000000;fontColor=#000000;" vertex="1" parent="172">
                    <mxGeometry width="65" height="22" as="geometry">
                        <mxRectangle width="65" height="22" as="alternateBounds"/>
                    </mxGeometry>
                </mxCell>
                <mxCell id="174" value="&lt;font style=&quot;font-size: 10px;&quot;&gt;varchar&lt;/font&gt;" style="shape=partialRectangle;html=1;whiteSpace=wrap;connectable=0;overflow=hidden;fillColor=#fad9d5;top=0;left=0;bottom=0;right=0;pointerEvents=1;fontSize=10;strokeColor=#000000;fontColor=#000000;" vertex="1" parent="172">
                    <mxGeometry x="65" width="65" height="22" as="geometry">
                        <mxRectangle width="65" height="22" as="alternateBounds"/>
                    </mxGeometry>
                </mxCell>
                <mxCell id="175" value="" style="shape=partialRectangle;collapsible=0;dropTarget=0;pointerEvents=0;fillColor=none;top=0;left=0;bottom=0;right=0;points=[[0,0.5],[1,0.5]];portConstraint=eastwest;" vertex="1" parent="171">
                    <mxGeometry y="52" width="130" height="24" as="geometry"/>
                </mxCell>
                <mxCell id="176" value="name" style="shape=partialRectangle;html=1;whiteSpace=wrap;connectable=0;overflow=hidden;fillColor=none;top=0;left=0;bottom=0;right=0;pointerEvents=1;fontColor=#000000;fontSize=10;" vertex="1" parent="175">
                    <mxGeometry width="65" height="24" as="geometry">
                        <mxRectangle width="65" height="24" as="alternateBounds"/>
                    </mxGeometry>
                </mxCell>
                <mxCell id="177" value="string" style="shape=partialRectangle;html=1;whiteSpace=wrap;connectable=0;overflow=hidden;fillColor=none;top=0;left=0;bottom=0;right=0;pointerEvents=1;fontColor=#000000;fontSize=10;" vertex="1" parent="175">
                    <mxGeometry x="65" width="65" height="24" as="geometry">
                        <mxRectangle width="65" height="24" as="alternateBounds"/>
                    </mxGeometry>
                </mxCell>
                <mxCell id="181" style="shape=partialRectangle;collapsible=0;dropTarget=0;pointerEvents=0;fillColor=none;top=0;left=0;bottom=0;right=0;points=[[0,0.5],[1,0.5]];portConstraint=eastwest;" vertex="1" parent="171">
                    <mxGeometry y="76" width="130" height="22" as="geometry"/>
                </mxCell>
                <mxCell id="182" value="instructions" style="shape=partialRectangle;html=1;whiteSpace=wrap;connectable=0;overflow=hidden;fillColor=none;top=0;left=0;bottom=0;right=0;pointerEvents=1;fontSize=10;fontColor=#000000;" vertex="1" parent="181">
                    <mxGeometry width="65" height="22" as="geometry">
                        <mxRectangle width="65" height="22" as="alternateBounds"/>
                    </mxGeometry>
                </mxCell>
                <mxCell id="183" value="string" style="shape=partialRectangle;html=1;whiteSpace=wrap;connectable=0;overflow=hidden;fillColor=none;top=0;left=0;bottom=0;right=0;pointerEvents=1;fontSize=10;fontColor=#000000;" vertex="1" parent="181">
                    <mxGeometry x="65" width="65" height="22" as="geometry">
                        <mxRectangle width="65" height="22" as="alternateBounds"/>
                    </mxGeometry>
                </mxCell>
                <mxCell id="184" style="shape=partialRectangle;collapsible=0;dropTarget=0;pointerEvents=0;fillColor=none;top=0;left=0;bottom=0;right=0;points=[[0,0.5],[1,0.5]];portConstraint=eastwest;" vertex="1" parent="171">
                    <mxGeometry y="98" width="130" height="22" as="geometry"/>
                </mxCell>
                <mxCell id="185" value="course_id" style="shape=partialRectangle;html=1;whiteSpace=wrap;connectable=0;overflow=hidden;fillColor=#fff2cc;top=0;left=0;bottom=0;right=0;pointerEvents=1;fontSize=10;strokeColor=#d6b656;fontColor=#000000;" vertex="1" parent="184">
                    <mxGeometry width="65" height="22" as="geometry">
                        <mxRectangle width="65" height="22" as="alternateBounds"/>
                    </mxGeometry>
                </mxCell>
                <mxCell id="186" value="integer" style="shape=partialRectangle;html=1;whiteSpace=wrap;connectable=0;overflow=hidden;fillColor=#fff2cc;top=0;left=0;bottom=0;right=0;pointerEvents=1;fontSize=10;strokeColor=#d6b656;fontColor=#000000;" vertex="1" parent="184">
                    <mxGeometry x="65" width="65" height="22" as="geometry">
                        <mxRectangle width="65" height="22" as="alternateBounds"/>
                    </mxGeometry>
                </mxCell>
                <mxCell id="194" style="edgeStyle=orthogonalEdgeStyle;html=1;entryX=1;entryY=0.5;entryDx=0;entryDy=0;fontColor=#000000;strokeColor=#000000;startArrow=ERmany;startFill=0;endArrow=none;endFill=0;exitX=1;exitY=0.5;exitDx=0;exitDy=0;" edge="1" parent="1" source="184" target="86">
                    <mxGeometry relative="1" as="geometry">
                        <mxPoint x="604" y="294" as="sourcePoint"/>
                        <Array as="points">
                            <mxPoint x="653" y="316"/>
                            <mxPoint x="653" y="70"/>
                        </Array>
                    </mxGeometry>
                </mxCell>
                <mxCell id="195" value="&lt;span style=&quot;font-size: 10px&quot;&gt;one menu&lt;/span&gt;&lt;br style=&quot;font-size: 10px&quot;&gt;&lt;span style=&quot;font-size: 10px&quot;&gt;has many&lt;/span&gt;&lt;br style=&quot;font-size: 10px&quot;&gt;&lt;span style=&quot;font-size: 10px&quot;&gt;dishes&lt;br&gt;&lt;/span&gt;" style="edgeLabel;html=1;align=center;verticalAlign=middle;resizable=0;points=[];fontColor=#000000;labelBackgroundColor=#FFFFFF;" vertex="1" connectable="0" parent="194">
                    <mxGeometry x="0.1133" relative="1" as="geometry">
                        <mxPoint as="offset"/>
                    </mxGeometry>
                </mxCell>
                <mxCell id="197" style="edgeStyle=orthogonalEdgeStyle;html=1;exitX=0;exitY=0.5;exitDx=0;exitDy=0;entryX=0;entryY=0.5;entryDx=0;entryDy=0;fontColor=#000000;startArrow=ERmany;startFill=0;endArrow=none;endFill=0;strokeColor=#000000;" edge="1" parent="1" source="128" target="172">
                    <mxGeometry relative="1" as="geometry">
                        <Array as="points">
                            <mxPoint x="437" y="459"/>
                            <mxPoint x="437" y="248"/>
                        </Array>
                    </mxGeometry>
                </mxCell>
                <mxCell id="198" value="&lt;span style=&quot;font-size: 10px&quot;&gt;one dish&lt;br&gt;&lt;/span&gt;has many&lt;br&gt;ingredients" style="edgeLabel;html=1;align=center;verticalAlign=middle;resizable=0;points=[];fontColor=#000000;labelBackgroundColor=#FFFFFF;" vertex="1" connectable="0" parent="197">
                    <mxGeometry x="0.0567" y="-3" relative="1" as="geometry">
                        <mxPoint as="offset"/>
                    </mxGeometry>
                </mxCell>
            </root>
        </mxGraphModel>
    </diagram>
</mxfile>